# xmcd CD database file
#
# Track frame offsets:
#	150
#	16148
#	31960
#	44735
#	57840
#	72023
#	86673
#	99923
#	115015
#	128860
#	143443
#	158260
#	172043
#	182443
#	194493
#	212435
#
# Disc length: 2994 seconds
#
# Revision: 0
# Processed by: cddbd v1.4PL0 Copyright (c) Steve Scherf et al.
# Submitted via: CDex 1.50beta10
#
DISCID=c80bb010
DTITLE=Various Artist - 典藏國語老歌七
DYEAR=1900
DGENRE=國語老歌
TTITLE0=我有一段情
TTITLE1=再見我的愛人
TTITLE2=憶良人
TTITLE3=深秋
TTITLE4=秋詩偏偏
TTITLE5=夕陽西沉
TTITLE6=情人山
TTITLE7=難忘初戀的情人
TTITLE8=月光小夜曲
TTITLE9=百花溪之戀
TTITLE10=落花情
TTITLE11=神話
TTITLE12=巧合
TTITLE13=海鷗
TTITLE14=山谷行
TTITLE15=祝你順風
EXTD=
EXTT0=
EXTT1=
EXTT2=
EXTT3=
EXTT4=
EXTT5=
EXTT6=
EXTT7=
EXTT8=
EXTT9=
EXTT10=
EXTT11=
EXTT12=
EXTT13=
EXTT14=
EXTT15=
PLAYORDER=
